<svg width="48" height="48" viewBox="0 0 48 48" xmlns="http://www.w3.org/2000/svg" role="img" aria-label="FlowSlide logo">
  <defs>
    <linearGradient id="g1" x1="0%" y1="0%" x2="100%" y2="100%">
      <stop offset="0%" stop-color="#4f7ef0" />
      <stop offset="100%" stop-color="#5ae0ff" />
    </linearGradient>
    <linearGradient id="g2" x1="0%" y1="0%" x2="100%" y2="100%">
      <stop offset="0%" stop-color="#ffffff" stop-opacity="0.98" />
      <stop offset="100%" stop-color="#ffffff" stop-opacity="0.9" />
    </linearGradient>
    <filter id="shadow" x="-50%" y="-50%" width="200%" height="200%">
      <feDropShadow dx="0" dy="2" stdDeviation="3" flood-color="#0b2540" flood-opacity="0.12"/>
    </filter>
  </defs>

  <!-- Rounded square background -->
  <rect x="2" y="2" width="44" height="44" rx="10" ry="10" fill="url(#g1)" filter="url(#shadow)" />
  <rect x="2" y="2" width="44" height="44" rx="10" ry="10" fill="none" stroke="rgba(255,255,255,0.12)" stroke-width="1" />

  <!-- Slide card motif -->
  <g transform="translate(8,10)">
    <rect x="0" y="0" width="32" height="22" rx="3" ry="3" fill="url(#g2)" />
    <rect x="0" y="0" width="32" height="5" rx="2" ry="2" fill="#4f7ef0" opacity="0.95" />
    <polygon points="22,8 17,12 22,16" fill="#4f7ef0" />
  </g>

  <!-- FS monogram -->
  <g transform="translate(10,16)">
    <path d="M0 0h3v10h5v2H0z" fill="#ffffff" />
    <path d="M13 1c-2.5 0-4 1-4 2.5 0 1.5 1.5 2.2 3 2.2 2 0 4 0.8 4 3 0 2.5-2.2 3.5-4 3.5" fill="none" stroke="#ffffff" stroke-width="1.6" stroke-linecap="round" stroke-linejoin="round" transform="translate(-3,0)" />
  </g>

  <!-- subtle bottom highlight -->
  <ellipse cx="24" cy="40" rx="12" ry="2.5" fill="#ffffff" opacity="0.06" />
</svg>
